<svg xmlns="http://www.w3.org/2000/svg" xmlns:xlink="http://www.w3.org/1999/xlink" width="350" zoomAndPan="magnify" viewBox="0 0 262.5 52.499999" height="70" preserveAspectRatio="xMidYMid meet" version="1.0"><defs><g/><clipPath id="e344942504"><path d="M 0.992188 7 L 33 7 L 33 50 L 0.992188 50 Z M 0.992188 7 " clip-rule="nonzero"/></clipPath><clipPath id="7f5258b340"><path d="M 221 6 L 261.015625 6 L 261.015625 50 L 221 50 Z M 221 6 " clip-rule="nonzero"/></clipPath></defs><g clip-path="url(#e344942504)"><g fill="#dd0e15" fill-opacity="1"><g transform="translate(1.699579, 49.350711)"><g><path d="M 14.5625 -41.15625 C 16.6875 -41.3125 18.785156 -41.144531 20.859375 -40.65625 C 22.929688 -40.175781 24.484375 -39.671875 25.515625 -39.140625 L 26.984375 -38.28125 L 23.859375 -30.90625 C 23.566406 -31.070312 23.15625 -31.285156 22.625 -31.546875 C 22.09375 -31.816406 21.113281 -32.15625 19.6875 -32.5625 C 18.257812 -32.976562 16.941406 -33.144531 15.734375 -33.0625 C 14.242188 -32.957031 13.117188 -32.5625 12.359375 -31.875 C 11.597656 -31.1875 11.253906 -30.304688 11.328125 -29.234375 C 11.367188 -28.691406 11.59375 -28.203125 12 -27.765625 C 12.414062 -27.335938 13.097656 -26.890625 14.046875 -26.421875 C 15.003906 -25.960938 15.84375 -25.597656 16.5625 -25.328125 C 17.28125 -25.054688 18.390625 -24.660156 19.890625 -24.140625 C 22.503906 -23.234375 24.769531 -21.910156 26.6875 -20.171875 C 28.601562 -18.441406 29.640625 -16.398438 29.796875 -14.046875 C 29.953125 -11.796875 29.6875 -9.800781 29 -8.0625 C 28.3125 -6.332031 27.289062 -4.941406 25.9375 -3.890625 C 24.59375 -2.847656 23.082031 -2.035156 21.40625 -1.453125 C 19.726562 -0.867188 17.890625 -0.507812 15.890625 -0.375 C 14.179688 -0.257812 12.488281 -0.316406 10.8125 -0.546875 C 9.144531 -0.785156 7.734375 -1.128906 6.578125 -1.578125 C 5.429688 -2.023438 4.398438 -2.46875 3.484375 -2.90625 C 2.566406 -3.351562 1.890625 -3.738281 1.453125 -4.0625 L 0.78125 -4.546875 L 4.734375 -12.375 C 5.140625 -12.082031 5.691406 -11.710938 6.390625 -11.265625 C 7.097656 -10.816406 8.328125 -10.238281 10.078125 -9.53125 C 11.828125 -8.820312 13.359375 -8.515625 14.671875 -8.609375 C 18.441406 -8.867188 20.238281 -10.28125 20.0625 -12.84375 C 20.019531 -13.382812 19.847656 -13.875 19.546875 -14.3125 C 19.242188 -14.757812 18.734375 -15.1875 18.015625 -15.59375 C 17.304688 -16.007812 16.675781 -16.332031 16.125 -16.5625 C 15.582031 -16.800781 14.695312 -17.15625 13.46875 -17.625 C 12.25 -18.101562 11.34375 -18.46875 10.75 -18.71875 C 8.289062 -19.71875 6.347656 -21.050781 4.921875 -22.71875 C 3.503906 -24.394531 2.722656 -26.253906 2.578125 -28.296875 C 2.335938 -31.804688 3.441406 -34.769531 5.890625 -37.1875 C 8.335938 -39.601562 11.226562 -40.925781 14.5625 -41.15625 Z M 14.5625 -41.15625 "/></g></g></g></g><g fill="#dd0e15" fill-opacity="1"><g transform="translate(28.754293, 47.459844)"><g><path d="M -1.3125 -31.4375 L -1.734375 -39.296875 L 25.890625 -40.78125 L 26.3125 -32.921875 L 16.96875 -32.421875 L 18.65625 -1 L 9.71875 -0.515625 L 8.03125 -31.9375 Z M -1.3125 -31.4375 "/></g></g></g><g fill="#dd0e15" fill-opacity="1"><g transform="translate(52.206538, 46.141118)"><g><path d="M 1.390625 -39.421875 L 15.4375 -39.953125 C 19.226562 -40.085938 22.347656 -39.1875 24.796875 -37.25 C 27.253906 -35.320312 28.554688 -32.488281 28.703125 -28.75 C 28.804688 -25.851562 28.171875 -23.398438 26.796875 -21.390625 C 25.429688 -19.390625 23.523438 -17.945312 21.078125 -17.0625 L 35.203125 -1.328125 L 23.828125 -0.890625 L 11.234375 -15.96875 L 11.8125 -0.4375 L 2.859375 -0.109375 Z M 10.984375 -22.3125 L 12.03125 -22.359375 C 12.851562 -22.390625 13.550781 -22.429688 14.125 -22.484375 C 14.695312 -22.535156 15.347656 -22.671875 16.078125 -22.890625 C 16.804688 -23.109375 17.382812 -23.398438 17.8125 -23.765625 C 18.238281 -24.128906 18.597656 -24.648438 18.890625 -25.328125 C 19.191406 -26.015625 19.320312 -26.832031 19.28125 -27.78125 C 19.25 -28.738281 19.0625 -29.539062 18.71875 -30.1875 C 18.375 -30.84375 17.972656 -31.335938 17.515625 -31.671875 C 17.054688 -32.003906 16.457031 -32.253906 15.71875 -32.421875 C 14.976562 -32.585938 14.320312 -32.675781 13.75 -32.6875 C 13.175781 -32.695312 12.476562 -32.6875 11.65625 -32.65625 L 10.609375 -32.609375 Z M 10.984375 -22.3125 "/></g></g></g><g fill="#dd0e15" fill-opacity="1"><g transform="translate(81.398814, 45.032491)"><g><path d="M 24.515625 -39.875 L 24.6875 -32.015625 L 11.140625 -31.71875 L 11.3125 -23.90625 L 24.28125 -24.1875 L 24.453125 -16.3125 L 11.484375 -16.03125 L 11.65625 -8.125 L 25.203125 -8.421875 L 25.375 -0.546875 L 2.859375 -0.0625 L 2 -39.390625 Z M 24.515625 -39.875 "/></g></g></g><g fill="#dd0e15" fill-opacity="1"><g transform="translate(104.108553, 44.456982)"><g><path d="M 22.65625 -39.453125 L 38.71875 -0.1875 L 29.09375 -0.140625 L 26.15625 -8 L 11.171875 -7.9375 L 8.296875 -0.046875 L -1.328125 0 L 14.359375 -39.421875 Z M 23.046875 -15.84375 L 18.59375 -27.28125 L 18.5 -27.28125 L 14.1875 -15.8125 Z M 23.046875 -15.84375 "/></g></g></g><g fill="#dd0e15" fill-opacity="1"><g transform="translate(136.483914, 44.198785)"><g><path d="M 35.390625 0.609375 L 33.921875 -22.734375 L 33.671875 -22.75 L 25.234375 0.203125 L 19.890625 0.109375 L 12.21875 -23.109375 L 11.984375 -23.109375 L 9.734375 0.171875 L 0.765625 0.015625 L 4.96875 -39.265625 L 14.5 -39.109375 L 22.84375 -16.25 L 31.953125 -38.8125 L 41.5 -38.640625 L 44.34375 0.75 Z M 35.390625 0.609375 "/></g></g></g><g fill="#dd0e15" fill-opacity="1"><g transform="translate(176.663422, 44.962521)"><g><path d="M 13.09375 -38.953125 L 11.828125 0.375 L 2.859375 0.09375 L 4.125 -39.234375 Z M 13.09375 -38.953125 "/></g></g></g><g fill="#dd0e15" fill-opacity="1"><g transform="translate(186.452946, 45.162217)"><g><path d="M 12.921875 -23.84375 L 11.8125 0.546875 L 2.859375 0.125 L 4.65625 -39.171875 L 13.609375 -38.75 L 28.125 -13.65625 L 28.21875 -13.640625 L 29.328125 -38.03125 L 38.296875 -37.625 L 36.5 1.671875 L 27.53125 1.265625 L 13.015625 -23.84375 Z M 12.921875 -23.84375 "/></g></g></g><g clip-path="url(#7f5258b340)"><g fill="#dd0e15" fill-opacity="1"><g transform="translate(220.811563, 46.680206)"><g><path d="M 39.828125 -19.421875 L 39.265625 -10.90625 C 37.929688 -6.3125 35.46875 -2.929688 31.875 -0.765625 C 28.289062 1.398438 24.390625 2.34375 20.171875 2.0625 C 14.867188 1.707031 10.488281 -0.570312 7.03125 -4.78125 C 3.570312 -8.988281 2.03125 -13.898438 2.40625 -19.515625 C 2.78125 -25.234375 4.921875 -29.9375 8.828125 -33.625 C 12.742188 -37.320312 17.429688 -38.988281 22.890625 -38.625 C 29.273438 -38.195312 34.171875 -35.617188 37.578125 -30.890625 L 31.296875 -24.859375 C 29.421875 -28.359375 26.613281 -30.234375 22.875 -30.484375 C 20.113281 -30.671875 17.675781 -29.628906 15.5625 -27.359375 C 13.445312 -25.097656 12.28125 -22.269531 12.0625 -18.875 C 11.832031 -15.550781 12.613281 -12.640625 14.40625 -10.140625 C 16.207031 -7.648438 18.488281 -6.3125 21.25 -6.125 C 23.53125 -5.976562 25.566406 -6.535156 27.359375 -7.796875 C 29.148438 -9.066406 30.117188 -10.84375 30.265625 -13.125 L 21.21875 -13.734375 L 21.6875 -20.640625 Z M 39.828125 -19.421875 "/></g></g></g></g></svg>